<?xml version="1.0" encoding="UTF-8" standalone="no"?><!DOCTYPE svg PUBLIC "-//W3C//DTD SVG 1.1//EN" "http://www.w3.org/Graphics/SVG/1.1/DTD/svg11.dtd"><svg width="100%" height="100%" viewBox="0 0 144 26" version="1.1" xmlns="http://www.w3.org/2000/svg" xmlns:xlink="http://www.w3.org/1999/xlink" xml:space="preserve" xmlns:serif="http://www.serif.com/" style="fill-rule:evenodd;clip-rule:evenodd;stroke-linejoin:round;stroke-miterlimit:2;"><rect x="0" y="0" width="3.741" height="25.346" style="fill:white;"/><rect x="17.81" y="7.159" width="3.741" height="18.188" style="fill:white;"/><rect x="88.236" y="0" width="3.741" height="25.346" style="fill:white;"/><path d="M124.336,7.159L125.775,7.159L125.775,0L129.516,0L129.516,7.159L132.51,7.159L132.51,10.9L129.516,10.9L129.516,25.346L125.775,25.346L125.775,10.9L124.336,10.9L124.336,7.159Z" style="fill:white;"/><rect x="17.364" y="0" width="4.632" height="4.632" style="fill:white;"/><rect x="2.246" y="21.605" width="12.94" height="3.741" style="fill:white;"/><path d="M45.628,7.159L56.266,7.159C58.833,7.159 60.915,9.24 60.915,11.808L60.915,20.698C60.915,21.931 60.425,23.113 59.553,23.985C58.681,24.857 57.499,25.346 56.266,25.346L48.798,25.346C47.565,25.346 46.382,24.857 45.511,23.985C44.639,23.113 44.149,21.931 44.149,20.698L44.149,19.031C44.149,17.798 44.639,16.615 45.511,15.744C46.382,14.872 47.565,14.382 48.798,14.382L55.973,14.382L55.973,18.123L49.434,18.123C49.024,18.123 48.632,18.286 48.342,18.575C48.053,18.865 47.89,19.257 47.89,19.667L47.89,20.062C47.89,20.471 48.053,20.864 48.342,21.153C48.632,21.443 49.024,21.605 49.434,21.605L55.46,21.605C55.87,21.605 56.262,21.443 56.552,21.153C56.841,20.864 57.004,20.471 57.004,20.062L57.004,12.444C57.004,12.034 56.841,11.642 56.552,11.352C56.262,11.063 55.87,10.9 55.46,10.9L45.628,10.9L45.628,7.159Z" style="fill:white;"/><path d="M110.113,25.346L99.475,25.346C96.908,25.346 94.826,23.265 94.826,20.698L94.826,11.808C94.826,10.575 95.316,9.392 96.188,8.521C97.06,7.649 98.242,7.159 99.475,7.159L106.943,7.159C108.176,7.159 109.358,7.649 110.23,8.521C111.102,9.392 111.592,10.575 111.592,11.808L111.592,13.474C111.592,14.707 111.102,15.89 110.23,16.762C109.358,17.634 108.176,18.123 106.943,18.123L99.768,18.123L99.768,14.382L106.307,14.382C106.717,14.382 107.109,14.219 107.398,13.93C107.688,13.641 107.851,13.248 107.851,12.839L107.851,12.444C107.851,12.034 107.688,11.642 107.398,11.352C107.109,11.063 106.717,10.9 106.307,10.9L100.281,10.9C99.871,10.9 99.479,11.063 99.189,11.352C98.9,11.642 98.737,12.034 98.737,12.444L98.737,20.062C98.737,20.471 98.9,20.864 99.189,21.153C99.479,21.443 99.871,21.605 100.281,21.605L110.113,21.605L110.113,25.346Z" style="fill:white;"/><path d="M118.072,25.346L114.161,25.346L114.161,11.808C114.161,9.24 116.242,7.159 118.81,7.159L122.335,7.159L122.331,10.9L119.615,10.9C118.763,10.9 118.072,11.591 118.072,12.444L118.072,25.346Z" style="fill:white;"/><path d="M41.453,21.605L41.453,25.346L24.802,25.346L24.802,22.246L36.039,10.9L24.802,10.9L24.802,7.159L41.453,7.159L41.453,10.26L30.324,21.605L41.453,21.605Z" style="fill:white;"/><path d="M86.218,25.346L82.193,25.346L79.91,19.537L70.859,19.537L72.329,15.796L78.44,15.796L74.541,5.871L66.89,25.346L62.864,25.346L72.822,0L76.26,0L86.218,25.346Z" style="fill:white;"/><path d="M135.995,26C135.505,26 135.034,25.805 134.687,25.458C134.341,25.112 134.146,24.641 134.146,24.151L134.146,21.17C134.146,20.679 134.341,20.209 134.687,19.862C135.034,19.516 135.505,19.321 135.995,19.321L139.6,19.321C140.091,19.321 140.561,19.516 140.908,19.862C141.255,20.209 141.45,20.679 141.45,21.17L141.45,24.151C141.45,24.641 141.255,25.112 140.908,25.458C140.561,25.805 140.091,26 139.6,26L135.995,26ZM136.411,20.84C135.999,20.84 135.665,21.174 135.665,21.586L135.665,23.735C135.665,24.147 135.999,24.481 136.411,24.481L139.184,24.481C139.596,24.481 139.93,24.147 139.93,23.735L139.93,21.586C139.93,21.174 139.596,20.84 139.184,20.84L136.411,20.84Z" style="fill:white;"/><path d="M134.146,14.897L135.665,14.897L135.665,15.892C135.665,16.303 135.998,16.636 136.409,16.636L141.45,16.636L141.45,18.155L135.999,18.155C135.507,18.155 135.036,17.96 134.688,17.613C134.341,17.265 134.146,16.794 134.146,16.302L134.146,14.897Z" style="fill:white;"/><path d="M134.146,9.159C134.146,8.136 134.975,7.306 135.999,7.306L141.885,7.306C142.908,7.306 143.738,8.136 143.738,9.159L143.738,12.323L142.219,12.323L142.219,9.569C142.219,9.159 141.886,8.825 141.475,8.825L136.409,8.825C136.211,8.825 136.022,8.904 135.883,9.043C135.743,9.183 135.665,9.372 135.665,9.569L135.665,11.723C135.665,11.92 135.743,12.109 135.883,12.249C136.022,12.388 136.211,12.467 136.409,12.467L139.186,12.467C139.384,12.467 139.573,12.388 139.713,12.249C139.852,12.109 139.93,11.92 139.93,11.723L139.93,9.277L141.45,9.277L141.45,12.133C141.45,13.156 140.62,13.986 139.596,13.986L135.999,13.986C134.975,13.986 134.146,13.156 134.146,12.133L134.146,9.159Z" style="fill:white;"/><rect x="129.505" y="8.341" width="1.873" height="1.873" style="fill:white;"/></svg>