<?xml version="1.0" encoding="UTF-8" standalone="no"?><!DOCTYPE svg PUBLIC "-//W3C//DTD SVG 1.1//EN" "http://www.w3.org/Graphics/SVG/1.1/DTD/svg11.dtd"><svg width="100%" height="100%" viewBox="0 0 378 105" version="1.1" xmlns="http://www.w3.org/2000/svg" xmlns:xlink="http://www.w3.org/1999/xlink" xml:space="preserve" xmlns:serif="http://www.serif.com/" style="fill-rule:evenodd;clip-rule:evenodd;stroke-linejoin:round;stroke-miterlimit:2;"><rect x="15" y="9.5" width="347.5" height="85.5" style="fill:url(#_Radial1);"/><path d="M16.5,104.5L15,104.5L15,99L16.5,99L16.5,104.5ZM361,104.5L362.5,104.5L362.5,99L361,99L361,104.5ZM16.5,96.5L13.5,96.5L13.5,93.5L16.5,93.5L16.5,96.5ZM361,96.5L364,96.5L364,93.5L361,93.5L361,96.5ZM11,93.5L11,95L5.5,95L5.5,93.5L11,93.5ZM366.5,93.5L366.5,95L372,95L372,93.5L366.5,93.5ZM11,11L11,9.5L5.5,9.5L5.5,11L11,11ZM366.5,11L366.5,9.5L372,9.5L372,11L366.5,11ZM16.5,8L13.5,8L13.5,11L16.5,11L16.5,8ZM361,8L364,8L364,11L361,11L361,8ZM16.5,0L15,0L15,5.5L16.5,5.5L16.5,0ZM361,0L362.5,0L362.5,5.5L361,5.5L361,0Z" style="fill:white;fill-opacity:0.5;"/><path d="M32.5,34.5L10.5,34.5L10.5,36L32.5,36L32.5,34.5ZM32.5,29.5L10.5,29.5L10.5,31L32.5,31L32.5,29.5ZM32.5,24.5L10.5,24.5L10.5,26L32.5,26L32.5,24.5Z" style="fill:white;"/><path d="M5.5,87.5L5.5,17L11,17L11,18.5L7,18.5L7,86L11,86L11,87.5L5.5,87.5Z" style="fill:url(#_Linear2);"/><path d="M0,102.5L0,2L5.5,2L5.5,3.5L1.5,3.5L1.5,101L5.5,101L5.5,102.5L0,102.5Z" style="fill:url(#_Linear3);"/><path d="M372,87.5L372,17L366.5,17L366.5,18.5L370.5,18.5L370.5,86L366.5,86L366.5,87.5L372,87.5Z" style="fill:url(#_Linear4);"/><path d="M377.5,102.5L377.5,2L372,2L372,3.5L376,3.5L376,101L372,101L372,102.5L377.5,102.5Z" style="fill:url(#_Linear5);"/><defs><radialGradient id="_Radial1" cx="0" cy="0" r="1" gradientUnits="userSpaceOnUse" gradientTransform="matrix(-300,3.67394e-14,-5.38845e-15,-44,165,51)"><stop offset="0" style="stop-color:black;stop-opacity:0.19"/><stop offset="1" style="stop-color:black;stop-opacity:0.12"/></radialGradient><linearGradient id="_Linear2" x1="0" y1="0" x2="1" y2="0" gradientUnits="userSpaceOnUse" gradientTransform="matrix(4.31688e-15,70.5,-70.5,4.31688e-15,-141.75,17)"><stop offset="0" style="stop-color:rgb(223,137,152);stop-opacity:1"/><stop offset="1" style="stop-color:rgb(229,185,157);stop-opacity:1"/></linearGradient><linearGradient id="_Linear3" x1="0" y1="0" x2="1" y2="0" gradientUnits="userSpaceOnUse" gradientTransform="matrix(6.15385e-15,100.5,-100.5,6.15385e-15,-147.25,2)"><stop offset="0" style="stop-color:rgb(223,137,152);stop-opacity:1"/><stop offset="1" style="stop-color:rgb(229,185,157);stop-opacity:1"/></linearGradient><linearGradient id="_Linear4" x1="0" y1="0" x2="1" y2="0" gradientUnits="userSpaceOnUse" gradientTransform="matrix(-4.31688e-15,70.5,70.5,4.31688e-15,474.25,17)"><stop offset="0" style="stop-color:rgb(223,137,152);stop-opacity:1"/><stop offset="1" style="stop-color:rgb(229,185,157);stop-opacity:1"/></linearGradient><linearGradient id="_Linear5" x1="0" y1="0" x2="1" y2="0" gradientUnits="userSpaceOnUse" gradientTransform="matrix(-6.15385e-15,100.5,100.5,6.15385e-15,479.75,2)"><stop offset="0" style="stop-color:rgb(223,137,152);stop-opacity:1"/><stop offset="1" style="stop-color:rgb(229,185,157);stop-opacity:1"/></linearGradient></defs></svg>