<?xml version="1.0" encoding="UTF-8" standalone="no"?><!DOCTYPE svg PUBLIC "-//W3C//DTD SVG 1.1//EN" "http://www.w3.org/Graphics/SVG/1.1/DTD/svg11.dtd"><svg width="100%" height="100%" viewBox="0 0 280 322" version="1.1" xmlns="http://www.w3.org/2000/svg" xmlns:xlink="http://www.w3.org/1999/xlink" xml:space="preserve" xmlns:serif="http://www.serif.com/" style="fill-rule:evenodd;clip-rule:evenodd;stroke-linejoin:round;stroke-miterlimit:2;"><rect x="171.349" y="275.279" width="16.853" height="1.296" style="fill:white;fill-rule:nonzero;"/><path d="M210.819,268.162L210.819,276.575L209.018,276.575L209.018,268.162L210.819,268.162ZM203.436,264.671L195.154,276.575L192.957,276.575C192.957,276.575 198.986,267.894 201.176,264.739L201.188,262.474C199.125,259.438 193.641,251.367 193.641,251.367L195.73,251.367L203.436,262.963L203.436,264.671ZM216.365,262.963L224.107,251.367L226.16,251.367C226.16,251.367 220.699,259.44 218.645,262.475L218.659,264.737C220.848,267.889 226.88,276.575 226.88,276.575L224.683,276.575L216.365,264.619L216.365,262.963ZM210.819,259.42L209.018,259.42L209.018,251.367L210.819,251.367L210.819,259.42Z" style="fill:white;fill-rule:nonzero;"/><path d="M119.31,274.919L136.704,274.919L136.704,276.575L119.31,276.575L119.31,274.919ZM119.31,262.963L134.579,262.963L134.579,264.583L119.31,264.583L119.31,262.963ZM119.31,253.023L119.31,251.367L136.164,251.367L136.164,253.023L119.31,253.023Z" style="fill:white;fill-rule:nonzero;"/><path d="M162.957,251.367L164.794,251.367L164.794,276.575L162.957,276.575L162.957,251.367ZM146.104,273.082L146.104,276.575L144.267,276.575L144.267,273.082L146.104,273.082ZM158.997,264.583L150.064,264.583L150.064,262.963L158.997,262.963L158.997,264.583ZM146.104,254.5L144.267,254.5L144.267,251.367L146.104,251.367L146.104,254.5Z" style="fill:white;fill-rule:nonzero;"/><rect x="18.69" y="0" width="1.837" height="276.575" style="fill:url(#_Linear1);"/><path d="M1.837,262.963L14.73,262.963L14.73,264.583L1.837,264.583L1.837,266.456L0,266.456L0,261.45L1.837,261.45L1.837,262.963Z" style="fill:white;"/><path d="M234.804,268.162L234.804,273.478L251.981,251.367L253.602,251.367L253.602,276.575L251.765,276.575L251.765,254.5L234.587,276.575L232.967,276.575L232.967,268.162L234.804,268.162ZM234.804,264.665L232.967,264.665L232.967,263.035L234.804,263.035L234.804,264.665ZM234.804,259.42L232.967,259.42L232.967,251.367L234.804,251.367L234.804,259.42Z" style="fill:white;fill-rule:nonzero;"/><path d="M274.346,263.611C276.219,263.923 277.629,264.607 278.578,265.663C279.526,266.72 280,268.124 280,269.877C280,272.038 279.244,273.694 277.731,274.846C276.219,275.999 273.974,276.575 270.997,276.575L260.158,276.575L260.158,251.367L270.313,251.367C272.954,251.367 275.012,251.919 276.489,253.023C277.965,254.128 278.704,255.712 278.704,257.777C278.704,259.241 278.319,260.466 277.551,261.45C276.783,262.434 275.715,263.155 274.346,263.611ZM261.994,275.027L271.033,275.027C275.787,275.027 278.163,273.274 278.163,269.769C278.163,267.968 277.563,266.648 276.363,265.808C275.162,264.967 273.386,264.547 271.033,264.547L263.831,264.547L263.831,263.035L270.277,263.035C272.39,263.035 274.01,262.602 275.138,261.738C276.267,260.874 276.831,259.626 276.831,257.993C276.831,256.336 276.267,255.076 275.138,254.212C274.01,253.347 272.39,252.915 270.277,252.915L261.994,252.915L261.994,275.027Z" style="fill:white;fill-rule:nonzero;"/><path d="M111.999,321.417L110.235,321.417L110.235,276.575L87.187,276.575L87.151,282.337L85.386,282.337L85.422,274.919L111.999,274.919L111.999,321.417ZM108.11,253.023L91.674,253.023L91.725,251.367L108.11,251.367L108.11,253.023Z" style="fill:url(#_Linear2);fill-rule:nonzero;"/><path d="M79.516,258.46L77.679,258.46L77.679,254.5L60.501,276.575L58.881,276.575L58.881,269.518L60.718,269.518L60.718,273.478L77.895,251.367L79.516,251.367L79.516,258.46ZM69.108,249.458C67.428,249.458 66.077,249.068 65.057,248.288C64.037,247.508 63.514,246.433 63.49,245.065L64.967,245.065C64.991,246.073 65.381,246.865 66.137,247.442C66.894,248.018 67.884,248.306 69.108,248.306C70.309,248.306 71.287,248.018 72.043,247.442C72.799,246.865 73.19,246.073 73.214,245.065L74.69,245.065C74.666,246.433 74.144,247.508 73.124,248.288C72.103,249.068 70.765,249.458 69.108,249.458Z" style="fill:white;fill-rule:nonzero;"/><path d="M33.075,267.932L29.17,276.575L27.19,276.575L31.165,267.932L33.075,267.932ZM48.242,267.932L52.218,276.575L50.237,276.575L46.289,267.932L48.242,267.932ZM41.55,253.383L37.858,253.383L38.786,251.367L40.622,251.367L41.55,253.383Z" style="fill:white;fill-rule:nonzero;"/><path d="M123.48,295.691L124.119,295.691L124.119,300.766L128.039,295.691L128.625,295.691L128.625,301.816L127.986,301.816L127.986,296.749L124.066,301.816L123.48,301.816L123.48,295.691Z" style="fill:white;fill-rule:nonzero;"/><path d="M136.246,295.691L136.246,301.816L135.608,301.816L135.608,298.989L131.775,298.989L131.775,301.816L131.128,301.816L131.128,295.691L131.775,295.691L131.775,298.421L135.608,298.421L135.608,295.691L136.246,295.691Z" style="fill:white;fill-rule:nonzero;"/><path d="M142.756,296.251L140.604,296.251L140.604,301.816L139.965,301.816L139.965,296.251L137.813,296.251L137.813,295.691L142.756,295.691L142.756,296.251Z" style="fill:white;fill-rule:nonzero;"/><path d="M148.663,301.256L148.663,301.816L144.331,301.816L144.331,295.691L148.531,295.691L148.531,296.251L144.979,296.251L144.979,298.429L148.146,298.429L148.146,298.981L144.979,298.981L144.979,301.256L148.663,301.256Z" style="fill:white;fill-rule:nonzero;"/><path d="M152.827,295.691C153.609,295.691 154.222,295.877 154.665,296.251C155.108,296.624 155.33,297.137 155.33,297.791C155.33,298.444 155.108,298.956 154.665,299.326C154.222,299.697 153.609,299.882 152.827,299.882L151.183,299.882L151.183,301.816L150.535,301.816L150.535,295.691L152.827,295.691ZM152.81,299.313C153.417,299.313 153.88,299.18 154.201,298.915C154.522,298.65 154.683,298.275 154.683,297.791C154.683,297.295 154.522,296.914 154.201,296.649C153.88,296.383 153.417,296.251 152.81,296.251L151.183,296.251L151.183,299.313L152.81,299.313Z" style="fill:white;fill-rule:nonzero;"/><path d="M160.711,300.179L157.299,300.179L156.564,301.816L155.89,301.816L158.69,295.691L159.329,295.691L162.129,301.816L161.446,301.816L160.711,300.179ZM160.475,299.654L159.005,296.364L157.535,299.654L160.475,299.654Z" style="fill:white;fill-rule:nonzero;"/><path d="M165.769,299.007L164.369,299.007L164.369,301.816L163.739,301.816L163.739,295.691L164.369,295.691L164.369,298.438L165.769,298.438L167.843,295.691L168.543,295.691L166.268,298.666L168.674,301.816L167.93,301.816L165.769,299.007Z" style="fill:white;fill-rule:nonzero;"/><path d="M174.064,296.251L171.911,296.251L171.911,301.816L171.273,301.816L171.273,296.251L169.12,296.251L169.12,295.691L174.064,295.691L174.064,296.251Z" style="fill:white;fill-rule:nonzero;"/><path d="M175.639,295.691L176.277,295.691L176.277,300.766L180.198,295.691L180.784,295.691L180.784,301.816L180.145,301.816L180.145,296.749L176.225,301.816L175.639,301.816L175.639,295.691Z" style="fill:white;fill-rule:nonzero;"/><path d="M186.918,298.657C187.343,298.744 187.667,298.915 187.889,299.169C188.11,299.422 188.221,299.753 188.221,300.162C188.221,300.693 188.033,301.101 187.657,301.387C187.281,301.673 186.728,301.816 185.999,301.816L183.286,301.816L183.286,295.691L185.833,295.691C186.486,295.691 186.996,295.825 187.364,296.093C187.731,296.361 187.915,296.749 187.915,297.257C187.915,297.601 187.828,297.891 187.653,298.127C187.478,298.364 187.233,298.54 186.918,298.657ZM183.925,298.464L185.798,298.464C186.27,298.464 186.633,298.368 186.887,298.176C187.141,297.983 187.268,297.703 187.268,297.336C187.268,296.968 187.141,296.688 186.887,296.496C186.633,296.303 186.27,296.207 185.798,296.207L183.925,296.207L183.925,298.464ZM185.999,301.299C187.055,301.299 187.583,300.906 187.583,300.118C187.583,299.348 187.055,298.963 185.999,298.963L183.925,298.963L183.925,301.299L185.999,301.299Z" style="fill:white;fill-rule:nonzero;"/><path d="M195.396,295.691L195.396,301.816L194.758,301.816L194.758,298.989L190.925,298.989L190.925,301.816L190.278,301.816L190.278,295.691L190.925,295.691L190.925,298.421L194.758,298.421L194.758,295.691L195.396,295.691Z" style="fill:white;fill-rule:nonzero;"/><path d="M200.463,297.878C201.186,297.878 201.739,298.041 202.121,298.368C202.503,298.695 202.694,299.173 202.694,299.803C202.694,300.462 202.491,300.962 202.086,301.304C201.68,301.645 201.095,301.816 200.331,301.816L197.899,301.816L197.899,295.691L198.538,295.691L198.538,297.878L200.463,297.878ZM200.314,301.299C200.88,301.299 201.31,301.174 201.604,300.923C201.899,300.672 202.046,300.302 202.046,299.812C202.046,298.873 201.469,298.403 200.314,298.403L198.538,298.403L198.538,301.299L200.314,301.299ZM203.753,295.691L204.391,295.691L204.391,301.816L203.753,301.816L203.753,295.691Z" style="fill:white;fill-rule:nonzero;"/><path d="M206.894,295.691L207.533,295.691L207.533,300.766L211.453,295.691L212.039,295.691L212.039,301.816L211.4,301.816L211.4,296.749L207.48,301.816L206.894,301.816L206.894,295.691ZM209.449,295.244C209.011,295.244 208.666,295.145 208.412,294.947C208.158,294.748 208.028,294.471 208.023,294.116L208.504,294.116C208.51,294.349 208.597,294.533 208.766,294.667C208.935,294.801 209.163,294.868 209.449,294.868C209.729,294.868 209.955,294.801 210.127,294.667C210.299,294.533 210.388,294.349 210.394,294.116L210.875,294.116C210.869,294.471 210.738,294.748 210.481,294.947C210.225,295.145 209.88,295.244 209.449,295.244Z" style="fill:white;fill-rule:nonzero;"/><path d="M220.902,298.657C221.328,298.744 221.652,298.915 221.874,299.169C222.095,299.422 222.206,299.753 222.206,300.162C222.206,300.693 222.018,301.101 221.642,301.387C221.266,301.673 220.713,301.816 219.984,301.816L217.271,301.816L217.271,295.691L219.818,295.691C220.471,295.691 220.981,295.825 221.349,296.093C221.716,296.361 221.9,296.749 221.9,297.257C221.9,297.601 221.812,297.891 221.637,298.127C221.462,298.364 221.217,298.54 220.902,298.657ZM217.91,298.464L219.782,298.464C220.255,298.464 220.618,298.368 220.872,298.176C221.126,297.983 221.252,297.703 221.252,297.336C221.252,296.968 221.126,296.688 220.872,296.496C220.618,296.303 220.255,296.207 219.782,296.207L217.91,296.207L217.91,298.464ZM219.984,301.299C221.04,301.299 221.568,300.906 221.568,300.118C221.568,299.348 221.04,298.963 219.984,298.963L217.91,298.963L217.91,301.299L219.984,301.299Z" style="fill:white;fill-rule:nonzero;"/><path d="M228.594,301.256L228.594,301.816L224.263,301.816L224.263,295.691L228.463,295.691L228.463,296.251L224.91,296.251L224.91,298.429L228.078,298.429L228.078,298.981L224.91,298.981L224.91,301.256L228.594,301.256Z" style="fill:white;fill-rule:nonzero;"/><path d="M230.466,295.691L234.946,295.691L234.946,296.242L231.105,296.242L231.105,298.246L233.109,298.246C233.832,298.246 234.382,298.394 234.758,298.692C235.134,298.989 235.323,299.421 235.323,299.987C235.323,300.576 235.12,301.028 234.714,301.343C234.309,301.658 233.727,301.816 232.969,301.816L230.466,301.816L230.466,295.691ZM232.96,301.299C233.526,301.299 233.953,301.191 234.242,300.976C234.531,300.76 234.675,300.439 234.675,300.013C234.675,299.593 234.534,299.28 234.251,299.072C233.968,298.865 233.537,298.762 232.96,298.762L231.105,298.762L231.105,301.299L232.96,301.299Z" style="fill:white;fill-rule:nonzero;"/><rect x="236.758" y="299.173" width="2.292" height="0.542" style="fill:white;fill-rule:nonzero;"/><path d="M243.792,301.868C243.186,301.868 242.639,301.734 242.152,301.466C241.665,301.197 241.283,300.825 241.006,300.35C240.729,299.875 240.59,299.342 240.59,298.753C240.59,298.164 240.729,297.632 241.006,297.156C241.283,296.681 241.666,296.309 242.156,296.041C242.646,295.772 243.195,295.638 243.801,295.638C244.256,295.638 244.676,295.714 245.061,295.866C245.446,296.017 245.773,296.239 246.041,296.531L245.63,296.942C245.152,296.458 244.548,296.216 243.819,296.216C243.335,296.216 242.894,296.326 242.497,296.548C242.101,296.77 241.79,297.073 241.566,297.458C241.341,297.843 241.229,298.275 241.229,298.753C241.229,299.231 241.341,299.663 241.566,300.048C241.79,300.433 242.101,300.736 242.497,300.958C242.894,301.18 243.335,301.291 243.819,301.291C244.554,301.291 245.157,301.046 245.63,300.556L246.041,300.967C245.773,301.258 245.445,301.482 245.057,301.636C244.669,301.791 244.247,301.868 243.792,301.868Z" style="fill:white;fill-rule:nonzero;"/><path d="M252.149,301.256L252.149,301.816L247.817,301.816L247.817,295.691L252.017,295.691L252.017,296.251L248.465,296.251L248.465,298.429L251.632,298.429L251.632,298.981L248.465,298.981L248.465,301.256L252.149,301.256Z" style="fill:white;fill-rule:nonzero;"/><path d="M256.314,295.691C257.095,295.691 257.708,295.877 258.151,296.251C258.595,296.624 258.816,297.137 258.816,297.791C258.816,298.444 258.595,298.956 258.151,299.326C257.708,299.697 257.095,299.882 256.314,299.882L254.669,299.882L254.669,301.816L254.021,301.816L254.021,295.691L256.314,295.691ZM256.296,299.313C256.903,299.313 257.367,299.18 257.688,298.915C258.008,298.65 258.169,298.275 258.169,297.791C258.169,297.295 258.008,296.914 257.688,296.649C257.367,296.383 256.903,296.251 256.296,296.251L254.669,296.251L254.669,299.313L256.296,299.313Z" style="fill:white;fill-rule:nonzero;"/><path d="M260.584,295.691L261.222,295.691L261.222,300.766L265.143,295.691L265.729,295.691L265.729,301.816L265.09,301.816L265.09,296.749L261.17,301.816L260.584,301.816L260.584,295.691Z" style="fill:white;fill-rule:nonzero;"/><path d="M272.151,300.179L268.739,300.179L268.004,301.816L267.33,301.816L270.13,295.691L270.769,295.691L273.569,301.816L272.886,301.816L272.151,300.179ZM271.915,299.654L270.445,296.364L268.975,299.654L271.915,299.654Z" style="fill:white;fill-rule:nonzero;"/><path d="M280,295.691L280,301.816L279.361,301.816L279.361,296.251L276.404,296.251L276.334,298.298C276.305,299.144 276.236,299.825 276.128,300.341C276.02,300.857 275.855,301.242 275.634,301.496C275.412,301.75 275.118,301.877 274.75,301.877C274.592,301.877 274.429,301.856 274.26,301.816L274.313,301.238C274.412,301.261 274.508,301.273 274.601,301.273C274.858,301.273 275.066,301.171 275.227,300.967C275.387,300.763 275.508,300.446 275.59,300.017C275.672,299.589 275.727,299.021 275.756,298.316L275.844,295.691L280,295.691Z" style="fill:white;fill-rule:nonzero;"/><defs><linearGradient id="_Linear1" x1="0" y1="0" x2="1" y2="0" gradientUnits="userSpaceOnUse" gradientTransform="matrix(1.53918e-14,251.367,-1.6692,1.02209e-16,18.5757,-1.9611e-12)"><stop offset="0" style="stop-color:rgb(223,137,152);stop-opacity:1"/><stop offset="0.9" style="stop-color:rgb(229,185,157);stop-opacity:1"/><stop offset="1" style="stop-color:white;stop-opacity:1"/></linearGradient><linearGradient id="_Linear2" x1="0" y1="0" x2="1" y2="0" gradientUnits="userSpaceOnUse" gradientTransform="matrix(2.39294e-15,-39.0797,39.0797,2.39294e-15,111.081,321.417)"><stop offset="0" style="stop-color:rgb(223,137,152);stop-opacity:1"/><stop offset="0.58" style="stop-color:rgb(229,185,157);stop-opacity:1"/><stop offset="1" style="stop-color:white;stop-opacity:1"/></linearGradient></defs></svg>