<?xml version="1.0" encoding="UTF-8" standalone="no"?><!DOCTYPE svg PUBLIC "-//W3C//DTD SVG 1.1//EN" "http://www.w3.org/Graphics/SVG/1.1/DTD/svg11.dtd"><svg width="100%" height="100%" viewBox="0 0 3842 2162" version="1.1" xmlns="http://www.w3.org/2000/svg" xmlns:xlink="http://www.w3.org/1999/xlink" xml:space="preserve" xmlns:serif="http://www.serif.com/" style="fill-rule:evenodd;clip-rule:evenodd;stroke-linejoin:round;stroke-miterlimit:2;"><g><path d="M2338,1041L2298,1001L2288,998L1499,998L1499,1162L2341,1162L2341,1051L2338,1041Z" style="fill:url(#_Linear1);"/><path d="M2341,998L2288,998L2341,1051L2341,998Z" style="fill:rgb(50,48,53);"/><path d="M1610.06,1056.9L1610.06,1103.1L1605.25,1103.1L1605.25,1081.78L1576.34,1081.78L1576.34,1103.1L1571.45,1103.1L1571.45,1056.9L1576.34,1056.9L1576.34,1077.49L1605.25,1077.49L1605.25,1056.9L1610.06,1056.9Z" style="fill:rgb(50,48,53);fill-rule:nonzero;"/><path d="M1655.21,1090.76L1629.47,1090.76L1623.92,1103.1L1618.84,1103.1L1639.96,1056.9L1644.78,1056.9L1665.9,1103.1L1660.75,1103.1L1655.21,1090.76ZM1653.43,1086.8L1642.34,1061.98L1631.25,1086.8L1653.43,1086.8Z" style="fill:rgb(50,48,53);fill-rule:nonzero;"/><path d="M1704.38,1056.9L1704.38,1103.1L1699.63,1103.1L1699.63,1083.96C1694.61,1086.12 1689.75,1087.19 1685.04,1087.19C1679.63,1087.19 1675.41,1085.87 1672.4,1083.23C1669.39,1080.59 1667.88,1076.9 1667.88,1072.15L1667.88,1056.9L1672.7,1056.9L1672.7,1071.62C1672.7,1075.18 1673.82,1077.95 1676.06,1079.93C1678.31,1081.91 1681.45,1082.9 1685.5,1082.9C1690.12,1082.9 1694.83,1081.8 1699.63,1079.6L1699.63,1056.9L1704.38,1056.9Z" style="fill:rgb(50,48,53);fill-rule:nonzero;"/><path d="M1749.59,1090.76L1723.85,1090.76L1718.3,1103.1L1713.22,1103.1L1734.34,1056.9L1739.16,1056.9L1760.28,1103.1L1755.13,1103.1L1749.59,1090.76ZM1747.81,1086.8L1736.72,1061.98L1725.63,1086.8L1747.81,1086.8Z" style="fill:rgb(50,48,53);fill-rule:nonzero;"/><path d="M1797.04,1061.12L1780.81,1061.12L1780.81,1103.1L1775.99,1103.1L1775.99,1061.12L1759.75,1061.12L1759.75,1056.9L1797.04,1056.9L1797.04,1061.12Z" style="fill:rgb(50,48,53);fill-rule:nonzero;"/><path d="M1824.96,1073.4C1830.42,1073.4 1834.59,1074.63 1837.47,1077.1C1840.35,1079.56 1841.79,1083.17 1841.79,1087.92C1841.79,1092.89 1840.26,1096.66 1837.2,1099.24C1834.14,1101.81 1829.73,1103.1 1823.97,1103.1L1805.62,1103.1L1805.62,1056.9L1810.44,1056.9L1810.44,1073.4L1824.96,1073.4ZM1823.84,1099.21C1828.11,1099.21 1831.35,1098.26 1833.57,1096.37C1835.8,1094.48 1836.91,1091.68 1836.91,1087.99C1836.91,1080.9 1832.55,1077.36 1823.84,1077.36L1810.44,1077.36L1810.44,1099.21L1823.84,1099.21Z" style="fill:rgb(50,48,53);fill-rule:nonzero;"/><path d="M1908.65,1056.9L1908.65,1103.1L1903.83,1103.1L1903.83,1061.12L1874.59,1061.12L1874.59,1103.1L1869.77,1103.1L1869.77,1056.9L1908.65,1056.9Z" style="fill:rgb(50,48,53);fill-rule:nonzero;"/><path d="M1941.52,1056.9C1947.41,1056.9 1952.03,1058.31 1955.38,1061.12C1958.72,1063.94 1960.39,1067.81 1960.39,1072.74C1960.39,1077.67 1958.72,1081.53 1955.38,1084.32C1952.03,1087.12 1947.41,1088.51 1941.52,1088.51L1929.11,1088.51L1929.11,1103.1L1924.22,1103.1L1924.22,1056.9L1941.52,1056.9ZM1941.38,1084.22C1945.96,1084.22 1949.46,1083.22 1951.88,1081.22C1954.3,1079.22 1955.51,1076.39 1955.51,1072.74C1955.51,1069 1954.3,1066.13 1951.88,1064.13C1949.46,1062.13 1945.96,1061.12 1941.38,1061.12L1929.11,1061.12L1929.11,1084.22L1941.38,1084.22Z" style="fill:rgb(50,48,53);fill-rule:nonzero;"/><path d="M1991.35,1103.5C1986.77,1103.5 1982.62,1102.47 1978.9,1100.43C1975.19,1098.38 1972.28,1095.58 1970.19,1092.01C1968.1,1088.45 1967.06,1084.44 1967.06,1080C1967.06,1075.56 1968.1,1071.55 1970.19,1067.99C1972.28,1064.42 1975.19,1061.62 1978.9,1059.57C1982.62,1057.53 1986.77,1056.5 1991.35,1056.5C1995.92,1056.5 2000.05,1057.52 2003.72,1059.54C2007.39,1061.56 2010.29,1064.37 2012.4,1067.95C2014.51,1071.54 2015.57,1075.56 2015.57,1080C2015.57,1084.44 2014.51,1088.46 2012.4,1092.05C2010.29,1095.63 2007.39,1098.44 2003.72,1100.46C2000.05,1102.48 1995.92,1103.5 1991.35,1103.5ZM1991.35,1099.14C1995,1099.14 1998.3,1098.32 2001.25,1096.66C2004.19,1095.02 2006.5,1092.73 2008.18,1089.8C2009.85,1086.88 2010.68,1083.61 2010.68,1080C2010.68,1076.39 2009.85,1073.13 2008.18,1070.2C2006.5,1067.27 2004.19,1064.99 2001.25,1063.34C1998.3,1061.68 1995,1060.86 1991.35,1060.86C1987.69,1060.86 1984.38,1061.68 1981.41,1063.34C1978.44,1064.99 1976.11,1067.27 1974.42,1070.2C1972.72,1073.13 1971.88,1076.39 1971.88,1080C1971.88,1083.61 1972.72,1086.88 1974.42,1089.8C1976.11,1092.73 1978.44,1095.02 1981.41,1096.66C1984.38,1098.32 1987.69,1099.14 1991.35,1099.14Z" style="fill:rgb(50,48,53);fill-rule:nonzero;"/><path d="M2047.45,1103.5C2042.87,1103.5 2038.75,1102.48 2035.07,1100.46C2031.4,1098.44 2028.52,1095.63 2026.42,1092.05C2024.34,1088.46 2023.29,1084.44 2023.29,1080C2023.29,1075.56 2024.34,1071.54 2026.42,1067.95C2028.52,1064.37 2031.41,1061.56 2035.1,1059.54C2038.8,1057.52 2042.94,1056.5 2047.51,1056.5C2050.94,1056.5 2054.11,1057.08 2057.02,1058.22C2059.92,1059.36 2062.38,1061.04 2064.41,1063.24L2061.31,1066.34C2057.7,1062.69 2053.14,1060.86 2047.64,1060.86C2043.99,1060.86 2040.67,1061.7 2037.68,1063.37C2034.69,1065.04 2032.34,1067.33 2030.65,1070.23C2028.96,1073.14 2028.11,1076.39 2028.11,1080C2028.11,1083.61 2028.96,1086.86 2030.65,1089.77C2032.34,1092.67 2034.69,1094.96 2037.68,1096.63C2040.67,1098.3 2043.99,1099.14 2047.64,1099.14C2053.19,1099.14 2057.74,1097.29 2061.31,1093.6L2064.41,1096.7C2062.38,1098.9 2059.91,1100.58 2056.98,1101.75C2054.06,1102.91 2050.88,1103.5 2047.45,1103.5Z" style="fill:rgb(50,48,53);fill-rule:nonzero;"/><path d="M2122.49,1056.9L2122.49,1103.1L2117.8,1103.1L2117.8,1066.14L2099.65,1097.23L2097.34,1097.23L2079.19,1066.34L2079.19,1103.1L2074.51,1103.1L2074.51,1056.9L2078.53,1056.9L2098.6,1091.15L2118.46,1056.9L2122.49,1056.9Z" style="fill:rgb(50,48,53);fill-rule:nonzero;"/><path d="M2158.33,1103.5C2153.75,1103.5 2149.6,1102.47 2145.89,1100.43C2142.17,1098.38 2139.26,1095.58 2137.17,1092.01C2135.08,1088.45 2134.04,1084.44 2134.04,1080C2134.04,1075.56 2135.08,1071.55 2137.17,1067.99C2139.26,1064.42 2142.17,1061.62 2145.89,1059.57C2149.6,1057.53 2153.75,1056.5 2158.33,1056.5C2162.9,1056.5 2167.03,1057.52 2170.7,1059.54C2174.38,1061.56 2177.27,1064.37 2179.38,1067.95C2181.49,1071.54 2182.55,1075.56 2182.55,1080C2182.55,1084.44 2181.49,1088.46 2179.38,1092.05C2177.27,1095.63 2174.38,1098.44 2170.7,1100.46C2167.03,1102.48 2162.9,1103.5 2158.33,1103.5ZM2158.33,1099.14C2161.98,1099.14 2165.28,1098.32 2168.23,1096.66C2171.17,1095.02 2173.48,1092.73 2175.16,1089.8C2176.83,1086.88 2177.66,1083.61 2177.66,1080C2177.66,1076.39 2176.83,1073.13 2175.16,1070.2C2173.48,1067.27 2171.17,1064.99 2168.23,1063.34C2165.28,1061.68 2161.98,1060.86 2158.33,1060.86C2154.67,1060.86 2151.36,1061.68 2148.39,1063.34C2145.42,1064.99 2143.09,1067.27 2141.4,1070.2C2139.7,1073.13 2138.86,1076.39 2138.86,1080C2138.86,1083.61 2139.7,1086.88 2141.4,1089.8C2143.09,1092.73 2145.42,1095.02 2148.39,1096.66C2151.36,1098.32 2154.67,1099.14 2158.33,1099.14Z" style="fill:rgb(50,48,53);fill-rule:nonzero;"/><path d="M2223.8,1061.12L2207.56,1061.12L2207.56,1103.1L2202.74,1103.1L2202.74,1061.12L2186.51,1061.12L2186.51,1056.9L2223.8,1056.9L2223.8,1061.12Z" style="fill:rgb(50,48,53);fill-rule:nonzero;"/><path d="M2249.67,1056.9C2255.57,1056.9 2260.19,1058.31 2263.53,1061.12C2266.87,1063.94 2268.55,1067.81 2268.55,1072.74C2268.55,1077.67 2266.87,1081.53 2263.53,1084.32C2260.19,1087.12 2255.57,1088.51 2249.67,1088.51L2237.26,1088.51L2237.26,1103.1L2232.38,1103.1L2232.38,1056.9L2249.67,1056.9ZM2249.54,1084.22C2254.11,1084.22 2257.61,1083.22 2260.03,1081.22C2262.45,1079.22 2263.66,1076.39 2263.66,1072.74C2263.66,1069 2262.45,1066.13 2260.03,1064.13C2257.61,1062.13 2254.11,1061.12 2249.54,1061.12L2237.26,1061.12L2237.26,1084.22L2249.54,1084.22Z" style="fill:rgb(50,48,53);fill-rule:nonzero;"/></g><defs><linearGradient id="_Linear1" x1="0" y1="0" x2="1" y2="0" gradientUnits="userSpaceOnUse" gradientTransform="matrix(5.15576e-14,164,-842,1.00421e-14,2261.57,998)"><stop offset="0" style="stop-color:rgb(222,138,153);stop-opacity:1"/><stop offset="1" style="stop-color:rgb(230,180,155);stop-opacity:1"/></linearGradient></defs></svg>